<mxfile host="app.diagrams.net" agent="Mozilla/5.0 (Windows NT 10.0; Win64; x64) AppleWebKit/537.36 (KHTML, like Gecko) Chrome/138.0.0.0 Safari/537.36" version="28.1.0">
  <diagram name="Page-1" id="Xx1c9qtDJV4ReZeF1rg6">
    <mxGraphModel dx="1638" dy="865" grid="1" gridSize="10" guides="1" tooltips="1" connect="1" arrows="1" fold="1" page="1" pageScale="1" pageWidth="850" pageHeight="1100" math="0" shadow="0">
      <root>
        <mxCell id="0" />
        <mxCell id="1" parent="0" />
        <mxCell id="r5ZHRBGFtj6ExlKl8_iA-10" value="" style="edgeStyle=orthogonalEdgeStyle;rounded=0;orthogonalLoop=1;jettySize=auto;html=1;" edge="1" parent="1" source="r5ZHRBGFtj6ExlKl8_iA-1" target="r5ZHRBGFtj6ExlKl8_iA-2">
          <mxGeometry relative="1" as="geometry" />
        </mxCell>
        <mxCell id="r5ZHRBGFtj6ExlKl8_iA-1" value="User" style="rounded=1;whiteSpace=wrap;html=1;" vertex="1" parent="1">
          <mxGeometry x="140" y="90" width="120" height="60" as="geometry" />
        </mxCell>
        <mxCell id="r5ZHRBGFtj6ExlKl8_iA-11" value="" style="edgeStyle=orthogonalEdgeStyle;rounded=0;orthogonalLoop=1;jettySize=auto;html=1;" edge="1" parent="1" source="r5ZHRBGFtj6ExlKl8_iA-2" target="r5ZHRBGFtj6ExlKl8_iA-3">
          <mxGeometry relative="1" as="geometry" />
        </mxCell>
        <mxCell id="r5ZHRBGFtj6ExlKl8_iA-2" value="Web App" style="rounded=1;whiteSpace=wrap;html=1;" vertex="1" parent="1">
          <mxGeometry x="140" y="210" width="120" height="60" as="geometry" />
        </mxCell>
        <mxCell id="r5ZHRBGFtj6ExlKl8_iA-7" style="edgeStyle=orthogonalEdgeStyle;rounded=0;orthogonalLoop=1;jettySize=auto;html=1;" edge="1" parent="1" source="r5ZHRBGFtj6ExlKl8_iA-3" target="r5ZHRBGFtj6ExlKl8_iA-6">
          <mxGeometry relative="1" as="geometry" />
        </mxCell>
        <mxCell id="r5ZHRBGFtj6ExlKl8_iA-8" style="edgeStyle=orthogonalEdgeStyle;rounded=0;orthogonalLoop=1;jettySize=auto;html=1;" edge="1" parent="1" source="r5ZHRBGFtj6ExlKl8_iA-3" target="r5ZHRBGFtj6ExlKl8_iA-4">
          <mxGeometry relative="1" as="geometry" />
        </mxCell>
        <mxCell id="r5ZHRBGFtj6ExlKl8_iA-9" style="edgeStyle=orthogonalEdgeStyle;rounded=0;orthogonalLoop=1;jettySize=auto;html=1;entryX=0.5;entryY=0;entryDx=0;entryDy=0;" edge="1" parent="1" source="r5ZHRBGFtj6ExlKl8_iA-3" target="r5ZHRBGFtj6ExlKl8_iA-5">
          <mxGeometry relative="1" as="geometry" />
        </mxCell>
        <mxCell id="r5ZHRBGFtj6ExlKl8_iA-3" value="API (express)" style="rounded=1;whiteSpace=wrap;html=1;" vertex="1" parent="1">
          <mxGeometry x="140" y="330" width="120" height="60" as="geometry" />
        </mxCell>
        <mxCell id="r5ZHRBGFtj6ExlKl8_iA-4" value="storage service" style="rounded=1;whiteSpace=wrap;html=1;" vertex="1" parent="1">
          <mxGeometry x="360" y="450" width="120" height="60" as="geometry" />
        </mxCell>
        <mxCell id="r5ZHRBGFtj6ExlKl8_iA-5" value="Voice service" style="rounded=1;whiteSpace=wrap;html=1;" vertex="1" parent="1">
          <mxGeometry x="130" y="460" width="120" height="60" as="geometry" />
        </mxCell>
        <mxCell id="r5ZHRBGFtj6ExlKl8_iA-6" value="Chat Service" style="rounded=1;whiteSpace=wrap;html=1;" vertex="1" parent="1">
          <mxGeometry x="-50" y="450" width="120" height="60" as="geometry" />
        </mxCell>
      </root>
    </mxGraphModel>
  </diagram>
</mxfile>
